<svg width="16" height="9" viewBox="0 0 16 9" fill="none" xmlns="http://www.w3.org/2000/svg">
<path d="M8.73222 8.59432C8.73222 8.59432 9.00174 8.56492 9.13978 8.41938C9.26614 8.28603 9.26176 8.03438 9.26176 8.03438C9.26176 8.03438 9.24496 6.8593 9.80078 6.6858C10.3486 6.51517 11.0519 7.82216 11.7984 8.32474C12.3623 8.70473 12.7903 8.62156 12.7903 8.62156L14.785 8.59432C14.785 8.59432 15.828 8.53122 15.3335 7.72609C15.2926 7.66013 15.045 7.13031 13.8508 6.04198C12.5996 4.90275 12.7676 5.087 14.2737 3.11611C15.1911 1.91594 15.5577 1.18322 15.443 0.869915C15.3342 0.570231 14.6593 0.649812 14.6593 0.649812L12.4141 0.663434C12.4141 0.663434 12.2476 0.641209 12.1242 0.71362C12.0036 0.784598 11.9255 0.950213 11.9255 0.950213C11.9255 0.950213 11.5705 1.87866 11.0965 2.66874C10.0966 4.33493 9.69707 4.42311 9.53346 4.31987C9.15293 4.07826 9.24788 3.35056 9.24788 2.83364C9.24788 1.21835 9.49767 0.545137 8.76217 0.370919C8.51822 0.312846 8.33854 0.274848 7.71406 0.268395C6.91282 0.260509 6.23502 0.271263 5.85084 0.455519C5.5952 0.578117 5.39799 0.851991 5.51851 0.867764C5.66678 0.887122 6.00276 0.956666 6.18097 1.19469C6.41104 1.50226 6.40301 2.19197 6.40301 2.19197C6.40301 2.19197 6.53521 4.09331 6.09406 4.32919C5.79167 4.49122 5.37681 4.16071 4.48501 2.64866C4.02851 1.87436 3.68377 1.01832 3.68377 1.01832C3.68377 1.01832 3.6173 0.858444 3.49825 0.77241C3.35436 0.668453 3.15351 0.63619 3.15351 0.63619L1.02004 0.649812C1.02004 0.649812 0.699395 0.658415 0.581802 0.795352C0.477356 0.916517 0.573768 1.16817 0.573768 1.16817C0.573768 1.16817 2.24417 5.00456 4.13588 6.93816C5.87056 8.71046 7.83969 8.59432 7.83969 8.59432H8.73222Z" fill="white"/>
</svg>
