<svg width="18" height="18" viewBox="0 0 18 18" fill="none" xmlns="http://www.w3.org/2000/svg">
<g clip-path="url(#clip0_0_138)">
<path d="M16.9601 1.17078L13.5024 0.372847C13.1267 0.286404 12.7411 0.482562 12.5881 0.834982L10.9923 4.55866C10.8526 4.88448 10.9457 5.26682 11.2217 5.48958L13.2365 7.13864C12.0396 9.68869 9.94832 11.8099 7.34507 13.03L5.69602 11.0152C5.46994 10.7393 5.09092 10.6462 4.7651 10.7858L1.04142 12.3817C0.685674 12.538 0.489516 12.9236 0.575959 13.2993L1.37389 16.757C1.45701 17.1161 1.77618 17.3754 2.15187 17.3754C10.6665 17.3754 17.5785 10.4766 17.5785 1.94876C17.5785 1.57639 17.3225 1.2539 16.9601 1.17078Z" fill="white"/>
</g>
<defs>
<clipPath id="clip0_0_138">
<rect width="17.0225" height="17.0225" fill="white" transform="translate(0.556274 0.353271)"/>
</clipPath>
</defs>
</svg>
