<svg width="52" height="42" viewBox="0 0 52 42" fill="none" xmlns="http://www.w3.org/2000/svg">
<path d="M46.7479 0.224786L5.01808 3.32871C3.26004 3.45941 1.75193 4.55385 1.08223 6.18453C0.412608 7.81537 0.716391 9.65383 1.87515 10.9823L11.0266 21.4747L26.0624 13.883C26.7542 13.5337 27.5985 13.8113 27.9478 14.5033C28.2972 15.1952 28.0195 16.0394 27.3275 16.3888L12.2918 23.9804L15.3014 37.5738C15.6824 39.295 16.9813 40.631 18.6912 41.0603C20.4045 41.4904 22.1791 40.9233 23.3261 39.5887L50.5994 7.85261C51.8411 6.40769 52.079 4.45359 51.2203 2.75288C50.3616 1.05217 48.6479 0.0833209 46.7479 0.224786Z" fill="#41BE90"/>
</svg>
