<svg width="38" height="48" viewBox="0 0 38 48" fill="none" xmlns="http://www.w3.org/2000/svg">
<path d="M36.5587 20.9304C35.3532 19.9449 33.6461 19.6295 32.209 20.1265C31.8239 20.2599 31.4663 20.4469 31.1459 20.6826C30.3288 21.2837 28.5148 23.088 27.0773 24.8738V11.1085C27.0773 9.93852 26.5963 8.79496 25.7578 7.97072C24.9253 7.15257 23.8318 6.71131 22.6843 6.73276C22.1633 6.74206 21.6641 6.8454 21.2028 7.02598V5.68146C21.2028 4.40809 20.6793 3.16334 19.7661 2.2658C18.861 1.37612 17.6767 0.896599 16.4241 0.919484C13.9267 0.962752 11.8877 2.99277 11.813 5.47442C11.272 5.22911 10.6845 5.09144 10.0762 5.0732C8.80748 5.03602 7.55092 5.52698 6.62978 6.4213C5.72759 7.29703 5.23055 8.45311 5.23055 9.67319L5.22733 10.9769C4.83792 10.8489 4.42276 10.7788 3.99116 10.7788C1.8131 10.7788 0.0412598 12.5507 0.0412598 14.7284L0.0426901 34.7382L0.0459084 34.8329C0.22792 37.4591 0.777529 39.7076 1.68008 41.5162C2.52613 43.2119 3.70652 44.5772 5.18835 45.5741C8.10447 47.5365 11.7068 47.7883 14.5192 47.7883C20.0421 47.7883 25.0108 45.0424 27.4956 40.6198C27.7978 40.1327 28.5942 38.8805 29.4541 37.5299C30.2916 36.2139 31.0708 35.0014 31.7577 33.9315C32.1353 33.3432 32.479 32.8083 32.7772 32.342C33.8882 30.6045 35.0722 28.9199 36.2966 27.3347C36.7507 26.7469 36.8905 26.5874 36.9223 26.5523C37.4955 25.9269 37.8567 25.1613 37.9668 24.3378C38.1403 23.0458 37.6268 21.8036 36.5587 20.9304ZM35.242 23.9731C35.2066 24.2362 35.0868 24.4858 34.8955 24.6947C34.7958 24.8037 34.6173 25.0111 34.121 25.6541C32.8469 27.3033 31.6154 29.0551 30.4608 30.8609C30.1632 31.3261 29.821 31.8589 29.4441 32.4457C28.7558 33.5177 27.9755 34.7332 27.1348 36.0534C26.2548 37.4358 25.4402 38.7163 25.142 39.198L25.1109 39.2509C23.1166 42.8211 19.0584 45.0388 14.5196 45.0388C12.0976 45.0388 9.02239 44.8404 6.72347 43.2934C4.37771 41.715 3.09183 38.9008 2.79217 34.6899L2.79074 14.7287C2.79074 14.0669 3.32926 13.5283 3.99116 13.5283C4.65698 13.5283 5.19872 14.0669 5.19872 14.7287V22.217C5.19872 22.2391 5.20123 22.2606 5.20194 22.2827C5.20337 22.3071 5.20337 22.3317 5.20588 22.3561C5.20802 22.3779 5.21231 22.399 5.21553 22.4204C5.21911 22.4444 5.22161 22.4687 5.22626 22.4927C5.23091 22.5141 5.23734 22.5352 5.24271 22.5563C5.24843 22.5788 5.25308 22.6021 5.26023 22.6242C5.26666 22.6457 5.27525 22.6664 5.28311 22.6872C5.29062 22.7083 5.29742 22.7297 5.30636 22.7505C5.31494 22.7712 5.32531 22.7909 5.33496 22.8109C5.34462 22.8309 5.35356 22.8513 5.36393 22.871C5.3743 22.8903 5.38681 22.9089 5.39826 22.9278C5.4097 22.9468 5.42043 22.9661 5.43259 22.9843C5.4451 23.0026 5.45905 23.0197 5.47228 23.0373C5.48551 23.0551 5.49767 23.0734 5.51161 23.0902C5.52556 23.107 5.54093 23.1224 5.55524 23.1385C5.57026 23.1549 5.58456 23.1724 5.60029 23.1882C5.61567 23.2032 5.63176 23.2168 5.64785 23.2314C5.6643 23.2464 5.68039 23.2625 5.69791 23.2768C5.71436 23.2904 5.73188 23.3026 5.74905 23.3155C5.76729 23.329 5.78481 23.3433 5.8034 23.3562C5.82092 23.368 5.83952 23.378 5.8574 23.3888C5.87706 23.4009 5.89637 23.4138 5.91676 23.4252C5.93535 23.4352 5.95502 23.4435 5.97397 23.4528C5.99471 23.4631 6.01545 23.4739 6.03691 23.4832C6.05657 23.4917 6.07767 23.4982 6.0977 23.5057C6.11951 23.5136 6.14096 23.5225 6.16313 23.5297C6.18423 23.5361 6.2064 23.5407 6.22786 23.5465C6.25038 23.5522 6.2722 23.559 6.29472 23.5636C6.31761 23.5683 6.3405 23.5708 6.36338 23.5744C6.38627 23.5776 6.40844 23.5822 6.43132 23.5847C6.45421 23.5869 6.47781 23.5872 6.50105 23.5883C6.52394 23.5894 6.54682 23.5919 6.57007 23.5919C6.57114 23.5919 6.57257 23.5919 6.57364 23.5919C6.6212 23.5919 6.66805 23.5894 6.71417 23.5847C6.7342 23.5829 6.75387 23.5786 6.77389 23.5758C6.79928 23.5722 6.82538 23.5693 6.85041 23.564C6.87688 23.5586 6.90226 23.5511 6.92801 23.5443C6.94589 23.5393 6.96448 23.5357 6.98201 23.5304C7.01061 23.5214 7.0385 23.5103 7.0664 23.4996C7.07998 23.4943 7.09465 23.49 7.10823 23.4842C7.13613 23.4724 7.16259 23.4585 7.18941 23.4453C7.20228 23.4388 7.21551 23.4335 7.22838 23.4267C7.25341 23.4131 7.27701 23.3973 7.30097 23.3823C7.31456 23.3741 7.32851 23.3666 7.34138 23.3577C7.36355 23.343 7.38465 23.3262 7.40575 23.3097C7.41969 23.2994 7.43399 23.2897 7.44723 23.2786C7.46689 23.2629 7.48477 23.245 7.50337 23.2278C7.51731 23.2153 7.53162 23.2032 7.5452 23.1903C7.56237 23.1731 7.57774 23.1545 7.59384 23.1367C7.60707 23.122 7.62137 23.1077 7.63388 23.0927C7.64819 23.0752 7.66106 23.0566 7.67465 23.0383C7.68752 23.0212 7.70111 23.0047 7.71291 22.9868C7.72543 22.9686 7.7358 22.9496 7.74724 22.9307C7.75868 22.9117 7.7712 22.8931 7.78193 22.8738C7.7923 22.8545 7.80088 22.8345 7.81053 22.8148C7.82019 22.7945 7.83091 22.7744 7.83985 22.7537C7.84844 22.7337 7.85487 22.7126 7.86238 22.6922C7.87061 22.6707 7.87919 22.6496 7.88634 22.6275C7.89278 22.6064 7.89743 22.5849 7.90279 22.5635C7.90851 22.5409 7.91531 22.5188 7.92031 22.4959C7.9246 22.4744 7.92711 22.4519 7.93032 22.4297C7.93426 22.4065 7.93855 22.3832 7.94105 22.3596C7.94355 22.3375 7.94355 22.3146 7.94463 22.292C7.94606 22.2681 7.94856 22.2448 7.94856 22.2209L7.98039 9.67677C7.98039 9.20332 8.18099 8.74776 8.54501 8.39411C8.93621 8.01471 9.46544 7.80516 9.99503 7.82161C10.987 7.85129 11.794 8.71415 11.794 9.74721L11.8098 22.1444C11.8098 22.1694 11.8123 22.1937 11.8137 22.218C11.8148 22.2398 11.8148 22.2624 11.8169 22.2838C11.8194 22.3096 11.8244 22.3342 11.8284 22.3593C11.8316 22.3797 11.8337 22.4004 11.8377 22.4204C11.8434 22.4476 11.8513 22.4741 11.8584 22.5005C11.8631 22.5177 11.8666 22.5352 11.8716 22.552C11.8806 22.5806 11.892 22.6085 11.9027 22.6364C11.9081 22.6503 11.912 22.6647 11.9178 22.6782C11.9306 22.7079 11.9453 22.7369 11.96 22.7655C11.9657 22.7762 11.97 22.7877 11.9757 22.798C11.9918 22.8277 12.01 22.856 12.0279 22.8839C12.0336 22.8931 12.0386 22.9024 12.0447 22.9114C12.0637 22.9396 12.0844 22.9661 12.1051 22.9926C12.1116 23.0008 12.1173 23.0094 12.1237 23.0172C12.147 23.0455 12.172 23.0719 12.1974 23.098C12.2028 23.1038 12.2071 23.1095 12.2124 23.1149C12.2385 23.141 12.2664 23.1653 12.2947 23.1892C12.3 23.1939 12.3047 23.1989 12.31 23.2035C12.3383 23.2268 12.3676 23.2479 12.3973 23.2686C12.4037 23.2733 12.4094 23.2783 12.4159 23.2826C12.4459 23.3029 12.4774 23.3212 12.5089 23.3391C12.5156 23.343 12.5221 23.3476 12.5292 23.3516C12.5621 23.3691 12.5961 23.3848 12.6304 23.4002C12.6369 23.4031 12.643 23.4066 12.6494 23.4095C12.6844 23.4242 12.7205 23.4367 12.757 23.4488C12.7635 23.4506 12.7692 23.4535 12.7756 23.4556C12.8117 23.4667 12.8486 23.4757 12.8854 23.4839C12.8929 23.4853 12.9001 23.4878 12.9076 23.4896C12.997 23.5078 13.0896 23.5175 13.1843 23.5175C13.1851 23.5175 13.1858 23.5175 13.1865 23.5175C13.2104 23.5175 13.234 23.515 13.2576 23.5139C13.2805 23.5125 13.3034 23.5125 13.3259 23.5103C13.351 23.5075 13.3749 23.5028 13.3996 23.4989C13.4203 23.4957 13.4418 23.4935 13.4625 23.4892C13.4872 23.4842 13.5112 23.4771 13.5355 23.4706C13.5552 23.4653 13.5748 23.4614 13.5941 23.4553C13.6188 23.4478 13.6424 23.4381 13.6664 23.4288C13.6842 23.422 13.7028 23.4167 13.7204 23.4091C13.745 23.3984 13.769 23.3859 13.7929 23.3741C13.8087 23.3662 13.8251 23.3594 13.8405 23.3512C13.8641 23.3383 13.8866 23.3233 13.9095 23.3094C13.9242 23.3001 13.9396 23.2919 13.9539 23.2822C13.9757 23.2675 13.9961 23.2511 14.0168 23.235C14.0311 23.2243 14.0458 23.2143 14.0597 23.2028C14.0794 23.1867 14.098 23.1685 14.1169 23.151C14.1302 23.1388 14.1441 23.127 14.1573 23.1141C14.1748 23.0963 14.1913 23.0769 14.2081 23.0584C14.2206 23.0444 14.2339 23.0312 14.246 23.0165C14.261 22.9979 14.2746 22.9783 14.2886 22.9593C14.3007 22.9429 14.3136 22.9271 14.325 22.9107C14.3379 22.8917 14.3486 22.8717 14.3604 22.852C14.3715 22.8338 14.3837 22.8159 14.3937 22.7973C14.4044 22.7776 14.413 22.7569 14.4227 22.7369C14.4323 22.7169 14.443 22.6975 14.4516 22.6768C14.4598 22.6571 14.4666 22.6364 14.4738 22.616C14.482 22.5942 14.491 22.5728 14.4977 22.5506C14.5042 22.5291 14.5088 22.5073 14.5146 22.4855C14.5203 22.4633 14.5271 22.4415 14.5314 22.419C14.536 22.3965 14.5385 22.3732 14.5421 22.3507C14.5453 22.3278 14.55 22.3053 14.5521 22.2824C14.5546 22.2591 14.5546 22.2355 14.5557 22.2119C14.5571 22.1887 14.5593 22.1662 14.5593 22.1426V5.61566C14.5593 4.56007 15.4175 3.68684 16.472 3.66861C16.9808 3.66145 17.4643 3.85813 17.8394 4.2268C18.2299 4.61049 18.4537 5.14079 18.4537 5.68146V22.2184C18.4537 22.2434 18.4562 22.2677 18.4577 22.2924C18.4587 22.3142 18.4587 22.3364 18.4609 22.3582C18.4634 22.3825 18.4684 22.4061 18.472 22.4301C18.4755 22.4519 18.4777 22.4737 18.482 22.4948C18.487 22.5188 18.4941 22.542 18.5002 22.5656C18.5056 22.586 18.5095 22.6064 18.5159 22.6264C18.5238 22.6518 18.5338 22.6765 18.5431 22.7011C18.5496 22.7183 18.5549 22.7358 18.5621 22.7526C18.5732 22.7784 18.586 22.803 18.5985 22.8281C18.6057 22.8427 18.6121 22.8581 18.62 22.8728C18.6336 22.8982 18.6493 22.9221 18.6647 22.9464C18.6729 22.9593 18.6801 22.9732 18.689 22.9861C18.7055 23.0104 18.7237 23.0337 18.7419 23.0569C18.7509 23.0684 18.7587 23.0805 18.768 23.0916C18.7881 23.1163 18.8102 23.1392 18.8321 23.1624C18.8406 23.171 18.8481 23.1806 18.8567 23.1892C18.8793 23.2121 18.9036 23.2329 18.9279 23.254C18.9368 23.2618 18.945 23.2704 18.9543 23.2779C18.9815 23.3004 19.0101 23.3208 19.0387 23.3412C19.0459 23.3462 19.0527 23.3519 19.0602 23.3573C19.0909 23.378 19.1231 23.397 19.1557 23.4152C19.1617 23.4184 19.1671 23.4227 19.1732 23.426C19.2089 23.4453 19.2454 23.4624 19.283 23.4789C19.2865 23.4803 19.2898 23.4825 19.2933 23.4839C19.3323 23.5003 19.3724 23.5146 19.4131 23.5275C19.4153 23.5286 19.4174 23.5293 19.4199 23.53C19.5054 23.5568 19.5944 23.5751 19.6863 23.5847C19.687 23.5847 19.6874 23.5847 19.6881 23.5847C19.7342 23.5894 19.7811 23.5919 19.8286 23.5919C19.829 23.5919 19.8294 23.5919 19.8301 23.5919C19.8544 23.5919 19.8783 23.5894 19.9027 23.5883C19.9252 23.5869 19.9477 23.5869 19.9699 23.5847C19.9953 23.5822 20.02 23.5772 20.045 23.5733C20.0654 23.5701 20.0861 23.5679 20.1065 23.5636C20.1333 23.5583 20.1591 23.5504 20.1852 23.5436C20.2027 23.5389 20.2209 23.5354 20.2381 23.53C20.266 23.5211 20.2928 23.5103 20.32 23.5C20.3346 23.4943 20.3496 23.4896 20.3643 23.4835C20.3918 23.4717 20.4183 23.4581 20.4451 23.4445C20.458 23.4381 20.4716 23.4327 20.4845 23.4256C20.5106 23.4113 20.5356 23.3952 20.561 23.3791C20.5731 23.3716 20.5857 23.3648 20.5978 23.3566C20.6236 23.3394 20.6475 23.3201 20.6718 23.3012C20.6822 23.2933 20.6933 23.2858 20.7037 23.2776C20.7276 23.2575 20.7501 23.2357 20.773 23.2143C20.7823 23.2057 20.7923 23.1978 20.8009 23.1889C20.8231 23.1667 20.8438 23.1431 20.8642 23.1191C20.8728 23.1098 20.8817 23.1009 20.89 23.0913C20.9096 23.0673 20.9275 23.0419 20.9454 23.0169C20.9529 23.0061 20.9615 22.9961 20.969 22.9854C20.9858 22.9604 21.0008 22.9343 21.0158 22.9082C21.023 22.896 21.0312 22.8846 21.038 22.8721C21.0523 22.8456 21.0645 22.8181 21.077 22.7905C21.0831 22.7776 21.0902 22.7651 21.0956 22.7519C21.107 22.7251 21.1163 22.6972 21.126 22.6697C21.131 22.655 21.1374 22.6407 21.1421 22.6253C21.1499 22.5992 21.156 22.5717 21.1628 22.5449C21.1667 22.5277 21.1721 22.5109 21.1757 22.4937C21.181 22.4673 21.1843 22.4397 21.1882 22.4129C21.1907 22.3943 21.1946 22.3761 21.1964 22.3571C21.1993 22.3321 21.1993 22.3064 21.2003 22.2806C21.2014 22.2595 21.2036 22.2388 21.2036 22.217V10.87C21.293 10.103 21.9441 9.49547 22.7326 9.48188C23.1377 9.47509 23.5289 9.63457 23.8311 9.93173C24.1472 10.2421 24.3285 10.6712 24.3285 11.1085V27.3354L24.3292 27.3969C24.3367 28.2877 24.9217 29.0404 25.7846 29.27C26.6417 29.4978 27.5175 29.1377 27.968 28.366L27.9766 28.3506C29.0544 26.4676 31.9351 23.5161 32.7761 22.8974C32.8734 22.8256 32.9853 22.768 33.1087 22.7251C33.6565 22.5359 34.3434 22.67 34.819 23.0591C35.0429 23.2425 35.2985 23.55 35.242 23.9731Z" fill="black"/>
</svg>
