<svg width="30" height="27" viewBox="0 0 30 27" fill="none" xmlns="http://www.w3.org/2000/svg">
<path d="M4.5 11.7283C6.15469 11.7283 7.5 10.2708 7.5 8.47827C7.5 6.68569 6.15469 5.22827 4.5 5.22827C2.84531 5.22827 1.5 6.68569 1.5 8.47827C1.5 10.2708 2.84531 11.7283 4.5 11.7283ZM25.5 11.7283C27.1547 11.7283 28.5 10.2708 28.5 8.47827C28.5 6.68569 27.1547 5.22827 25.5 5.22827C23.8453 5.22827 22.5 6.68569 22.5 8.47827C22.5 10.2708 23.8453 11.7283 25.5 11.7283ZM27 13.3533H24C23.175 13.3533 22.4297 13.7138 21.8859 14.2978C23.775 15.4201 25.1156 17.4462 25.4062 19.8533H28.5C29.3297 19.8533 30 19.1271 30 18.2283V16.6033C30 14.8107 28.6547 13.3533 27 13.3533ZM15 13.3533C17.9016 13.3533 20.25 10.8091 20.25 7.66577C20.25 4.52241 17.9016 1.97827 15 1.97827C12.0984 1.97827 9.75 4.52241 9.75 7.66577C9.75 10.8091 12.0984 13.3533 15 13.3533ZM18.6 14.9783H18.2109C17.2359 15.4861 16.1531 15.7908 15 15.7908C13.8469 15.7908 12.7688 15.4861 11.7891 14.9783H11.4C8.41875 14.9783 6 17.5986 6 20.8283V22.2908C6 23.6365 7.00781 24.7283 8.25 24.7283H21.75C22.9922 24.7283 24 23.6365 24 22.2908V20.8283C24 17.5986 21.5812 14.9783 18.6 14.9783ZM8.11406 14.2978C7.57031 13.7138 6.825 13.3533 6 13.3533H3C1.34531 13.3533 0 14.8107 0 16.6033V18.2283C0 19.1271 0.670312 19.8533 1.5 19.8533H4.58906C4.88438 17.4462 6.225 15.4201 8.11406 14.2978Z" fill="#6CBEB9"/>
</svg>
