<svg width="427" height="143" viewBox="0 0 427 143" fill="none" xmlns="http://www.w3.org/2000/svg">
<path d="M219.504 17.8101C208.751 -3.01414 84.0656 -6.1554 -5.58285e-05 14.0416C69.7274 -2.00436 194.025 -1.74076 206.069 21.5825C214.671 38.242 161.361 54.1638 173.405 77.4871C182.014 92.0327 256.05 92.8409 261.211 102.837C264.222 108.667 252.507 115.772 257.239 124.934C272.723 154.921 433.647 141.083 426.335 126.923C420.83 116.26 291.407 135.778 279.793 113.288C274.632 103.292 280.883 102.632 278.116 97.2727C272.094 85.611 199.357 85.1879 190.754 68.5284C183.012 53.5348 228.536 35.3028 219.504 17.8101Z" fill="#F2CED4"/>
</svg>
