<svg width="33" height="47" viewBox="0 0 33 47" fill="none" xmlns="http://www.w3.org/2000/svg">
<g clip-path="url(#clip0_0_608)">
<path d="M24.75 23.6042H8.25V29.3542H24.75V23.6042ZM32.3984 10.0378L23.9852 1.23315C23.5984 0.828857 23.0742 0.604248 22.5242 0.604248H22V12.1042H33V11.5562C33 10.9902 32.7852 10.4421 32.3984 10.0378ZM19.25 12.823V0.604248H2.0625C0.919531 0.604248 0 1.56558 0 2.7605V44.448C0 45.6429 0.919531 46.6042 2.0625 46.6042H30.9375C32.0805 46.6042 33 45.6429 33 44.448V14.9792H21.3125C20.1781 14.9792 19.25 14.0089 19.25 12.823ZM5.5 7.073C5.5 6.67589 5.80766 6.35425 6.1875 6.35425H13.0625C13.4423 6.35425 13.75 6.67589 13.75 7.073V8.5105C13.75 8.90761 13.4423 9.22925 13.0625 9.22925H6.1875C5.80766 9.22925 5.5 8.90761 5.5 8.5105V7.073ZM5.5 12.823C5.5 12.4259 5.80766 12.1042 6.1875 12.1042H13.0625C13.4423 12.1042 13.75 12.4259 13.75 12.823V14.2605C13.75 14.6576 13.4423 14.9792 13.0625 14.9792H6.1875C5.80766 14.9792 5.5 14.6576 5.5 14.2605V12.823ZM27.5 40.1355C27.5 40.5326 27.1923 40.8542 26.8125 40.8542H19.9375C19.5577 40.8542 19.25 40.5326 19.25 40.1355V38.698C19.25 38.3009 19.5577 37.9792 19.9375 37.9792H26.8125C27.1923 37.9792 27.5 38.3009 27.5 38.698V40.1355ZM27.5 22.1667V30.7917C27.5 31.586 26.8847 32.2292 26.125 32.2292H6.875C6.11531 32.2292 5.5 31.586 5.5 30.7917V22.1667C5.5 21.3725 6.11531 20.7292 6.875 20.7292H26.125C26.8847 20.7292 27.5 21.3725 27.5 22.1667Z" fill="white"/>
</g>
<defs>
<clipPath id="clip0_0_608">
<rect width="33" height="46" fill="white" transform="translate(0 0.604248)"/>
</clipPath>
</defs>
</svg>
