<svg width="55" height="45" viewBox="0 0 55 45" fill="none" xmlns="http://www.w3.org/2000/svg">
<path d="M8.25 19.8542C11.2836 19.8542 13.75 17.3878 13.75 14.3542C13.75 11.3207 11.2836 8.85425 8.25 8.85425C5.21641 8.85425 2.75 11.3207 2.75 14.3542C2.75 17.3878 5.21641 19.8542 8.25 19.8542ZM46.75 19.8542C49.7836 19.8542 52.25 17.3878 52.25 14.3542C52.25 11.3207 49.7836 8.85425 46.75 8.85425C43.7164 8.85425 41.25 11.3207 41.25 14.3542C41.25 17.3878 43.7164 19.8542 46.75 19.8542ZM49.5 22.6042H44C42.4875 22.6042 41.1211 23.2144 40.1242 24.2027C43.5875 26.1019 46.0453 29.5308 46.5781 33.6042H52.25C53.7711 33.6042 55 32.3753 55 30.8542V28.1042C55 25.0707 52.5336 22.6042 49.5 22.6042ZM27.5 22.6042C32.8195 22.6042 37.125 18.2988 37.125 12.9792C37.125 7.65972 32.8195 3.35425 27.5 3.35425C22.1805 3.35425 17.875 7.65972 17.875 12.9792C17.875 18.2988 22.1805 22.6042 27.5 22.6042ZM34.1 25.3542H33.3867C31.5992 26.2136 29.6141 26.7292 27.5 26.7292C25.3859 26.7292 23.4094 26.2136 21.6133 25.3542H20.9C15.4344 25.3542 11 29.7886 11 35.2542V37.7292C11 40.0066 12.8477 41.8542 15.125 41.8542H39.875C42.1523 41.8542 44 40.0066 44 37.7292V35.2542C44 29.7886 39.5656 25.3542 34.1 25.3542ZM14.8758 24.2027C13.8789 23.2144 12.5125 22.6042 11 22.6042H5.5C2.46641 22.6042 0 25.0707 0 28.1042V30.8542C0 32.3753 1.22891 33.6042 2.75 33.6042H8.41328C8.95469 29.5308 11.4125 26.1019 14.8758 24.2027Z" fill="white"/>
</svg>
